<svg xmlns="http://www.w3.org/2000/svg" viewBox="0 0 248.541 248.541"><path d="M63.618 108.54h121.305c5.24 0 10.042-2.925 12.443-7.583 2.402-4.656 2.002-10.266-1.036-14.535L140.946 8.6C137.106 3.206 130.892 0 124.27 0s-12.836 3.205-16.676 8.6L52.21 86.422c-3.037 4.27-3.437 9.88-1.035 14.535 2.4 4.658 7.203 7.584 12.443 7.584zM184.923 140H63.618c-5.24 0-10.042 2.926-12.443 7.584-2.402 4.656-2.002 10.266 1.036 14.535l55.385 77.82c3.84 5.396 10.054 8.6 16.676 8.6s12.837-3.204 16.677-8.6l55.384-77.82c3.04-4.27 3.44-9.88 1.037-14.536-2.402-4.658-7.204-7.584-12.444-7.584z"/></svg>