<svg xmlns="http://www.w3.org/2000/svg" width="512" height="512" viewBox="0 0 512 512"><path d="M426.676 0H85.324C38.2 0 0 38.21 0 85.343v341.315C0 473.79 38.2 512 85.324 512h341.352C473.8 512 512 473.79 512 426.658V85.343C512 38.21 473.8 0 426.676 0zM280.822 342.06c-23.26-1.808-33.02-13.33-51.252-24.404C219.54 370.246 207.29 420.666 171 447c-11.2-79.48 16.448-139.183 29.286-202.556-21.893-36.853 2.635-111.017 48.81-92.737 56.812 22.474-49.2 137.004 21.966 151.31 74.31 14.934 104.643-128.93 58.57-175.714-66.578-67.553-193.8-1.54-178.156 95.178 3.807 23.647 28.236 30.82 9.762 63.453-42.61-9.445-55.325-43.052-53.688-87.855 2.634-73.337 65.892-124.682 129.343-131.783 80.243-8.982 155.553 29.454 165.954 104.938 11.706 85.19-36.224 177.46-122.025 170.826z" fill="#ffd93b"/></svg>